<?xml version="1.0"?><svg version="1.2" baseProfile="tiny-ps" viewBox="0 0 300 300" xmlns="http://www.w3.org/2000/svg" xmlns:xlink="http://www.w3.org/1999/xlink"><title>NCS SVG Logo</title><g><g fill="#fefefe" transform="matrix(.1 0 0 -.1 0 300)"><path d="M0 1500V0h3000v3000H0V1500z"/></g><g fill="#c7d0e2" transform="matrix(.1 0 0 -.1 0 300)"><path d="M2160 2203c-194-13-473-68-647-127-161-55-472-190-461-202 3-2 92 25 199 60 299 100 518 146 779 165l135 10 100-9c178-17 269-39 351-86 49-28 101-85 110-119l6-25h86l6 23c10 37 7 86-8 120l-13 33-43 36-42 37-63 25-63 25-88 15c-98 16-259 26-344 19zM300 1480v-360h200l2 233 3 234 250-233 250-233 103-1h102v720h-180v-482l-67 64c-92 87-216 205-342 321l-104 97H300v-360zm1102 347c-18-7-47-24-66-39l-33-26-16-35-17-35v-435l25-43 25-42 52-26 52-26h250l251 1 58 78c31 43 57 81 57 85 0 3-124 6-275 6h-275l-20 20-20 20v297l18 16 19 17h478l11 8c15 9 104 149 104 162v10l-322-1-323-1-33-11zm789 0-35-11-42-40-42-41-11-40c-6-22-11-62-11-90v-50l19-40c22-47 63-88 106-106l30-13 220-4 220-3 13-17c16-22 15-47-4-66l-15-16h-494l-62-79c-35-44-63-82-63-85s152-6 338-6h338l50 25 49 25 23 33c41 62 52 135 31 210l-10 38-35 39-35 38-46 16-47 16h-412l-12 12-12 12v54l17 13 16 14 241 5 240 5 58 75c32 41 58 78 58 83v7l-322-1-323-1-34-11zM202 1283c-17-27-38-72-48-101l-17-53 6-55 6-55 25-44c59-100 185-164 391-200l90-15h260l145 20c249 33 472 92 695 185 101 41 247 116 241 123-3 2-74-19-159-47-277-91-531-144-777-161l-146-11-124 10-125 10-97 25-97 25-68 32-67 32-47 47-47 47-11 39c-15 52-13 101 4 149 18 48 17 45 6 45-5 0-23-21-39-47z"/></g><g fill="#839bc9" transform="matrix(.1 0 0 -.1 0 300)"><path d="M2090 2194c-226-26-482-85-656-149-114-43-334-140-361-160l-18-14 160 55c296 102 536 155 799 176l139 11 126-11 126-11 70-19c89-24 130-42 181-80l41-30 23-47 22-46 37 3 36 3 9 37 9 37-12 41-12 40-36 36-36 37-52 23c-29 13-87 33-131 45l-79 21-175 3c-96 2-191 1-210-1zM310 1480v-361l93 3 92 3 3 233 2 234 43-38c23-20 138-127 255-236l212-198h200v721l-87-3-88-3-3-238-2-238-69 63c-38 35-155 143-259 241l-190 177H310v-360zm1115 349c-22-6-57-21-77-35l-37-26-21-42-20-42v-419l23-40 22-39 34-23c18-13 50-27 70-33l36-10h463l56 75c31 41 56 79 56 85v10h-549l-15 16-16 15v305l14 20 14 19 253 5 252 5 48 75c26 41 48 78 48 83l1 7-307-1-308-1-40-9zm780-3c-22-7-53-21-68-31l-28-18-26-45-26-44v-143l20-40c25-49 47-70 96-90l36-15h417l22-16 22-15v-55l-12-12-12-12h-496l-65-82-65-83 323-3 322-3 40 12c22 6 55 22 73 36l32 24 22 42 21 42v130l-20 40c-25 49-47 69-96 90l-36 15h-410l-25 11-24 11-5 20-6 20 9 23c5 12 16 25 25 29 9 3 121 6 248 6h232l63 80c34 44 62 82 62 85s-141 5-312 4h-313l-40-13zM205 1280c-15-23-34-61-42-84l-15-41v-60l-1-61 21-40c44-87 131-146 273-188l86-25 96-10c128-15 205-14 369 4 323 34 643 127 921 266 43 22 77 42 76 44-2 2-62-17-134-41-314-108-671-174-939-174H815l-105 15c-246 33-413 114-471 226l-19 38v48c0 27 4 64 10 82 14 49 6 49-25 1z"/></g><g fill="#546288" transform="matrix(.1 0 0 -.1 0 300)"><path d="M2055 2185c-219-25-453-81-639-151-111-43-298-126-293-130 2-2 64 16 137 41 218 73 357 107 595 146l80 14h430l87-22 88-23 57-29 58-29 32-34c17-18 37-46 42-61l11-28 37 3 38 3 3 55 2 55-19 32c-42 68-147 121-291 149l-75 15-130 4-130 4-120-14zM310 1475v-355h180l2 242 3 242 260-242 260-242 95 2 95 3 3 353 2 352h-180l-2-236-3-236-252 236-253 236H310v-355zm1075 336-41-18-27-32-26-32-12-41-11-42 4-196 3-196 17-27c26-39 59-67 97-83l33-14h497l55 73 55 72-275 5-276 5-19 24-19 23v289l25 24 24 25h486l48 75c26 41 47 77 47 80s-145 5-322 5h-323l-40-19zm785-1c-44-23-83-65-100-107l-12-32 4-74 3-74 27-40 26-40 39-19 38-19 225-5 225-5 13-8 12-8v-68l-22-15-22-16h-481l-55-70c-30-39-57-75-59-81l-3-10 333 3 334 3 48 24 48 23 27 41 27 41v172l-27 41-26 40-46 21-46 22h-430l-20 20c-24 24-25 48-4 78l15 22h242l242 1 55 71c30 40 57 75 58 80l4 8h-329l-328-1-35-19zM213 1287c-11-18-29-48-39-67l-17-35-5-70-4-70 22-47 22-47 39-35c21-20 64-49 96-65l58-29 86-21 86-21 106-10 106-9 133 9c248 16 464 61 713 147 93 32 339 143 332 149-2 2-57-14-123-36-225-73-429-119-645-146l-134-16-175 5-175 6-70 15c-38 9-101 25-138 37l-68 22-62 37-62 37-32 42-32 42-12 42-12 42 16 60c8 33 14 61 13 62s-11-13-23-30z"/></g><g fill="#044bc5" transform="matrix(.1 0 0 -.1 0 300)"><path d="M2055 2185c-219-25-453-81-639-151-111-43-298-126-293-130 2-2 64 16 137 41 218 73 357 107 595 146l80 14h430l87-22 88-23 57-29 58-29 32-34c17-18 37-46 42-61l11-28 37 3 38 3 3 55 2 55-19 32c-42 68-147 121-291 149l-75 15-130 4-130 4-120-14zM310 1480v-350h180v472l10-4c5-1 122-108 259-235l250-233h191v700h-160v-482l-9 4c-5 2-101 89-213 193-111 105-226 212-254 238l-51 47H310v-350zm1075 331-41-18-27-32-26-32-12-41-11-42 4-196 3-196 17-27c26-39 59-67 97-83l33-14h497l55 73 55 72-275 5-276 5-19 24-19 23v289l25 24 24 25h486l48 75c26 41 47 77 47 80s-145 5-322 5h-323l-40-19zm805 6-34-11-37-37-38-38-10-38c-14-48-14-108 0-156l10-38 30-34 31-35 51-15 51-15h405l15-22c21-30 20-54-4-78l-20-20h-489l-56-69c-30-37-55-71-55-75v-6h655l40 19 41 18 27 32 26 32 11 37c13 48 13 97-1 147l-11 40-37 36-36 37-40 11-40 11h-412l-16 18-17 19v52l16 15 15 16h477l53 68c28 37 56 73 62 80l9 12-318-1-319-1-35-11zM188 1238l-32-63v-75l-1-75 18-33c10-18 36-51 58-72l41-39 55-26c75-36 131-52 238-70l90-15h130c327 0 698 83 1033 233 62 27 111 51 109 53s-50-12-108-31c-235-79-521-138-764-156l-143-10-115 10c-144 14-201 24-306 58l-84 26-61 41-61 41-32 42-32 43-7 46-7 47 10 43c6 24 9 44 7 44s-18-28-36-62z"/></g><g fill="#021f55" transform="matrix(.1 0 0 -.1 0 300)"><path d="M310 1480v-350h180v472l10-4c5-1 122-108 259-235l250-233h191v700h-160v-482l-9 4c-5 2-101 89-213 193-111 105-226 212-254 238l-51 47H310v-350zm1880 337-34-11-37-37-38-38-10-38c-14-48-14-108 0-156l10-38 30-34 31-35 51-15 51-15h405l15-22c21-30 20-54-4-78l-20-20h-489l-56-69c-30-37-55-71-55-75v-6h655l40 19 41 18 27 32 26 32 11 37c13 48 13 97-1 147l-11 40-37 36-36 37-40 11-40 11h-412l-16 18-17 19v52l16 15 15 16h477l53 68c28 37 56 73 62 80l9 12-318-1-319-1-35-11zM188 1238l-32-63v-75l-1-75 18-33c10-18 36-51 58-72l41-39 55-26c75-36 131-52 238-70l90-15h130c327 0 698 83 1033 233 62 27 111 51 109 53s-50-12-108-31c-235-79-521-138-764-156l-143-10-115 10c-144 14-201 24-306 58l-84 26-61 41-61 41-32 42-32 43-7 46-7 47 10 43c6 24 9 44 7 44s-18-28-36-62z"/></g></g></svg>